<?xml version="1.0" encoding="UTF-8"?>
<svg id="Capa_2" data-name="Capa 2" xmlns="http://www.w3.org/2000/svg" viewBox="0 0 257.17 47.08">
  <defs>
    <style>
      .cls-1 {
        fill: #e11d48;
      }

      .cls-2 {
        fill: #fff;
      }
    </style>
  </defs>
  <g id="MESA_10" data-name="MESA 10">
    <g>
      <g>
        <path class="cls-2" d="M3.37,36.24V14.78H0v-5.62h3.37v-1.02c0-1.74.31-3.19.92-4.37.61-1.18,1.63-2.07,3.04-2.68,1.41-.61,3.31-.92,5.7-.92.51,0,1.15,0,1.92.03.77.02,1.41.06,1.92.13v5.72c-.51-.07-1.07-.11-1.66-.13-.6-.02-1.15-.03-1.66-.03-1.3,0-2.2.21-2.71.64-.51.43-.77,1.13-.77,2.12v.51h6.29v5.62h-6.29v21.46H3.37Z"/>
        <path class="cls-2" d="M26.08,36.86c-1.94,0-3.59-.37-4.96-1.1-1.36-.73-2.4-1.75-3.12-3.04-.72-1.29-1.07-2.76-1.07-4.39,0-2.73.81-4.77,2.43-6.13,1.62-1.36,4.05-2.04,7.28-2.04h8.07v-1.28c0-1.77-.4-3.02-1.2-3.73-.8-.72-2.07-1.07-3.81-1.07-1.53,0-2.64.26-3.32.79-.68.53-1.07,1.18-1.18,1.97h-6.75c.1-1.57.6-2.97,1.51-4.22.9-1.24,2.2-2.23,3.88-2.96,1.69-.73,3.72-1.1,6.11-1.1s4.34.34,6.06,1.02c1.72.68,3.06,1.78,4.01,3.3.95,1.52,1.43,3.55,1.43,6.11v10.37c0,1.43.03,2.68.08,3.76.05,1.07.14,2.12.28,3.14h-6.29c-.14-.75-.21-1.32-.23-1.71-.02-.39-.03-.98-.03-1.76-.72,1.09-1.84,2.04-3.37,2.86-1.53.82-3.48,1.23-5.83,1.23ZM28.18,31.64c1.09,0,2.14-.2,3.14-.59,1-.39,1.82-1,2.45-1.84.63-.83.95-1.9.95-3.19v-1.28h-6.8c-1.3,0-2.31.3-3.04.89-.73.6-1.1,1.41-1.1,2.43,0,1.09.37,1.96,1.12,2.61.75.65,1.84.97,3.27.97Z"/>
        <path class="cls-2" d="M56.07,36.86c-2.22,0-4.07-.23-5.57-.69-1.5-.46-2.73-1.09-3.7-1.89-.97-.8-1.69-1.71-2.15-2.73-.46-1.02-.74-2.1-.84-3.22h6.75c.17.89.7,1.61,1.58,2.17.89.56,2.2.84,3.94.84,1.98,0,3.39-.27,4.24-.82.85-.54,1.28-1.24,1.28-2.1,0-.61-.19-1.12-.56-1.51-.38-.39-1.04-.73-1.99-1.02-.95-.29-2.3-.59-4.04-.89-1.5-.2-2.87-.48-4.11-.84-1.24-.36-2.34-.86-3.3-1.51-.95-.65-1.7-1.46-2.22-2.43-.53-.97-.79-2.15-.79-3.55,0-1.5.45-2.86,1.35-4.09.9-1.23,2.21-2.21,3.93-2.94,1.72-.73,3.79-1.1,6.21-1.1,2.62,0,4.72.41,6.29,1.23,1.57.82,2.74,1.87,3.53,3.17.78,1.3,1.26,2.67,1.43,4.14h-6.75c-.27-.99-.8-1.74-1.58-2.25-.78-.51-1.76-.77-2.91-.77-1.7,0-2.92.26-3.65.79-.73.53-1.1,1.18-1.1,1.97s.4,1.45,1.2,1.89c.8.44,2.44.84,4.93,1.18,1.53.2,2.96.5,4.27.89,1.31.39,2.46.91,3.45,1.56.99.65,1.76,1.46,2.33,2.43.56.97.84,2.15.84,3.55,0,1.67-.45,3.14-1.35,4.42-.9,1.28-2.27,2.28-4.09,3.01-1.82.73-4.1,1.1-6.82,1.1Z"/>
        <path class="cls-2" d="M81.87,36.55c-2.11,0-3.85-.3-5.21-.89-1.36-.6-2.36-1.56-2.99-2.89-.63-1.33-.95-3.05-.95-5.16v-12.83h-3.63v-5.62h3.63V3.03h6.69v6.13h6.54v5.62h-6.54v11.75c0,1.53.28,2.63.84,3.3.56.66,1.61,1,3.14,1,1.02,0,2.04-.05,3.07-.15v5.62c-.65.07-1.32.13-2.02.18-.7.05-1.56.08-2.58.08Z"/>
        <path class="cls-2" d="M100.88,36.86c-2.45,0-4.71-.5-6.77-1.51-2.06-1-3.7-2.54-4.93-4.6-1.23-2.06-1.84-4.66-1.84-7.79v-1.02c0-3,.59-5.48,1.76-7.46,1.18-1.98,2.75-3.46,4.73-4.45,1.98-.99,4.16-1.48,6.54-1.48,4.26,0,7.49,1.12,9.71,3.37,2.21,2.25,3.32,5.5,3.32,9.76v2.86h-19.16c.07,1.6.42,2.91,1.05,3.91.63,1,1.44,1.74,2.43,2.2.99.46,2.04.69,3.17.69,1.74,0,3.05-.26,3.94-.77.89-.51,1.52-1.26,1.89-2.25h6.18c-.55,2.83-1.89,4.96-4.04,6.39-2.15,1.43-4.8,2.15-7.97,2.15ZM100.62,14.06c-1.06,0-2.08.17-3.07.51-.99.34-1.77.95-2.35,1.81-.58.87-.9,2.02-.97,3.45h12.62c-.03-1.53-.33-2.72-.89-3.55s-1.3-1.41-2.22-1.74c-.92-.32-1.96-.49-3.12-.49Z"/>
        <path class="cls-2" d="M116.36,36.24V9.16h6.13v4.04c.37-.78.89-1.52,1.53-2.2.65-.68,1.45-1.26,2.4-1.74.95-.48,2.01-.72,3.17-.72.65,0,1.2.03,1.66.1.46.07.76.14.89.2v5.98c-.34-.14-.78-.26-1.3-.38-.53-.12-1.24-.18-2.12-.18-1.36,0-2.46.29-3.3.87-.84.58-1.44,1.34-1.81,2.27-.38.94-.56,1.95-.56,3.04v15.79h-6.69Z"/>
        <path class="cls-2" d="M140.07,47.08c-.51,0-1.02-.05-1.53-.15v-5.72c.51.1,1.02.15,1.53.15.68,0,1.25-.17,1.71-.51.46-.34.89-.89,1.28-1.63.39-.75.83-1.74,1.3-2.96l-11.45-27.08h7.56l7.36,18.7,6.69-18.7h7l-10.42,27.08c-.99,2.55-1.94,4.62-2.86,6.21-.92,1.58-2,2.75-3.25,3.5-1.24.75-2.89,1.12-4.93,1.12Z"/>
        <path class="cls-1" d="M172.48,36.86c-2.35,0-4.39-.51-6.11-1.53-1.72-1.02-3.05-2.56-3.99-4.62-.94-2.06-1.41-4.64-1.41-7.74v-1.02c0-2.93.47-5.38,1.41-7.36.94-1.98,2.27-3.48,4.01-4.5,1.74-1.02,3.76-1.53,6.08-1.53,1.87,0,3.52.4,4.93,1.2,1.41.8,2.55,1.87,3.4,3.19V.47h6.69v35.77h-6.23v-3.99c-.68,1.23-1.76,2.3-3.22,3.22-1.47.92-3.32,1.38-5.57,1.38ZM174.06,31.13c1.36,0,2.55-.26,3.55-.77,1-.51,1.79-1.3,2.35-2.38s.84-2.41.84-4.01v-3.07c0-1.5-.29-2.73-.87-3.71-.58-.97-1.38-1.7-2.4-2.2-1.02-.49-2.18-.74-3.47-.74-1.84,0-3.34.64-4.5,1.92-1.16,1.28-1.74,3.19-1.74,5.75v1.02c0,2.79.6,4.85,1.79,6.18,1.19,1.33,2.67,1.99,4.45,1.99Z"/>
        <path class="cls-1" d="M203.19,36.86c-2.45,0-4.71-.5-6.77-1.51-2.06-1-3.7-2.54-4.93-4.6-1.23-2.06-1.84-4.66-1.84-7.79v-1.02c0-3,.59-5.48,1.76-7.46,1.18-1.98,2.75-3.46,4.73-4.45,1.98-.99,4.16-1.48,6.54-1.48,4.26,0,7.49,1.12,9.71,3.37,2.21,2.25,3.32,5.5,3.32,9.76v2.86h-19.16c.07,1.6.42,2.91,1.05,3.91.63,1,1.44,1.74,2.43,2.2.99.46,2.04.69,3.17.69,1.74,0,3.05-.26,3.94-.77.89-.51,1.52-1.26,1.89-2.25h6.18c-.55,2.83-1.89,4.96-4.04,6.39-2.15,1.43-4.8,2.15-7.97,2.15ZM202.94,14.06c-1.06,0-2.08.17-3.07.51-.99.34-1.77.95-2.35,1.81-.58.87-.9,2.02-.97,3.45h12.62c-.03-1.53-.33-2.72-.89-3.55s-1.3-1.41-2.22-1.74c-.92-.32-1.96-.49-3.12-.49Z"/>
      </g>
      <path class="cls-1" d="M218.18,36.61l-.06-27.6h5.95v19.64l24.06-21.1h9.04l-33.11,29.06h-5.89Z"/>
      <g>
        <path class="cls-2" d="M220.82,0c-1.07,0-1.81.01-2.7.09v4.88c.9-.08,1.8-.14,2.7-.14,6.79,0,13.04,2.33,18.01,6.23l3.68-3.23c-5.9-4.89-13.46-7.84-21.7-7.84Z"/>
        <path class="cls-2" d="M247.02,21.1c1.95,3.92,3.06,8.33,3.06,13,0,1-.05,2-.15,2.99l4.81.02c.12-1.15.18-1.86.18-3.02,0-5.89-1.5-11.44-4.15-16.28l-3.74,3.29Z"/>
        <path class="cls-2" d="M250.76,17.8l-3.75,3.28s0,.02.01.02l3.74-3.29s0,0,0-.01Z"/>
      </g>
    </g>
  </g>
</svg>